HIERARCHY
ROOT Hips
{
	OFFSET 0.00000 0.00000 0.00000
	CHANNELS 6 Xposition Yposition Zposition Yrotation Zrotation Xrotation 
	JOINT Lumbar
	{
		OFFSET 0 0 0
		CHANNELS 3 Zrotation Xrotation Yrotation
		JOINT Neck
		{
			OFFSET 0.00 0.2701 0.00
			CHANNELS 3 Zrotation Xrotation Yrotation
			End Site
			{
				OFFSET 0.00 0.1379 0.00
			}
		}
		JOINT RightShoulder
		{
			OFFSET 0.0119 0.2289 0.1181
			CHANNELS 3 Zrotation Xrotation Yrotation
			JOINT RightElbow
			{
				OFFSET 0.00 -0.1475 0.00
				CHANNELS 2 Zrotation Yrotation
				JOINT RightWrist
				{
					OFFSET 0.00 -0.1605 0.00
					CHANNELS 2 Zrotation Xrotation
					End Site
					{
						OFFSET 0.0040 -0.1068 0.0006
					}
				}
			}
		}
		JOINT LeftShoulder
		{
			OFFSET 0.0119 0.2289 -0.1181
			CHANNELS 3 Zrotation Xrotation Yrotation
			JOINT LeftElbow
			{
				OFFSET 0.00 -0.1475 0.00
				CHANNELS 2 Zrotation Yrotation
				JOINT LeftWrist
				{
					OFFSET 0.00 -0.1605 0.00
					CHANNELS 2 Zrotation Xrotation
					End Site
					{
						OFFSET 0.0040 -0.1068 -0.0006
					}
				}
			}
		}
	}
	JOINT RightHip
	{
		OFFSET 0.0316 -0.0424 0.0458
		CHANNELS 3 Zrotation Xrotation Yrotation
		JOINT RightKnee
		{
			OFFSET 0.00 -0.2438 0.00
			CHANNELS 1 Zrotation
			JOINT RightAnkle
			{
				OFFSET 0.00 -0.2449 0.00
				CHANNELS 3 Zrotation Xrotation Yrotation
				End Site
				{
					OFFSET 0.1237 -0.0542 0.0051
				}
			}
		}
	}
	JOINT LeftHip
	{
		OFFSET 0.0316 -0.0424 -0.0458
		CHANNELS 3 Zrotation Xrotation Yrotation
		JOINT LeftKnee
		{
			OFFSET 0.00 -0.2438 0.00
			CHANNELS 1 Zrotation
			JOINT LeftAnkle
			{
				OFFSET 0.00 -0.2449 0.00
				CHANNELS 3 Zrotation Xrotation Yrotation
				End Site
				{
					OFFSET 0.1237 -0.0542 -0.0051
				}
			}
		}
	}
}
MOTION
Frames: 11
Frame Time: 0.02
-0.00183 -0.00021 0.00048 -181.18047 -34.27804 -3.37215 47.14918 2.76072 -5.38113 -5.54705 -1.93658 -0.05317 -21.86824 -10.52486 3.31242 36.46303 88.94798 6.06069 0.35099 -24.22411 11.39739 -3.88282 41.47998 -110.69219 16.86086 -0.75204 35.22633 -1.70468 -13.37979 -21.01284 -7.6464 -2.77327 -3.61239 38.50341 8.84801 7.96623 -27.22892 -8.56571 3.79376 4.19404
-0.00118 -0.00013 0.0003 -181.09954 -34.03757 -3.35058 46.75757 2.75059 -5.4614 -5.63925 -1.98378 -0.12286 -21.73171 -10.63304 3.42433 36.59811 88.94919 6.12318 0.34115 -24.18018 11.45623 -3.9302 41.33571 -110.91698 17.00405 -1.22066 35.00093 -1.65256 -13.1974 -20.95479 -7.66752 -2.79436 -3.62571 38.26504 8.94668 8.392 -27.17417 -8.53536 3.75778 4.17343
-0.00052 -6e-05 0.00012 -181.01889 -33.79807 -3.32902 46.36691 2.74052 -5.54154 -5.73156 -2.03098 -0.19235 -21.59543 -10.74121 3.53644 36.73315 88.95062 6.18562 0.33133 -24.13604 11.51526 -3.97816 41.19149 -111.13681 17.14566 -1.68655 34.77675 -1.60071 -13.01595 -20.89703 -7.68857 -2.81534 -3.63897 38.02789 9.04496 8.81628 -27.11963 -8.50513 3.72192 4.1529
0.00012 2e-05 -6e-05 -180.93821 -33.55838 -3.30751 45.97649 2.73043 -5.62158 -5.8235 -2.07806 -0.26182 -21.4593 -10.8491 3.64809 36.86788 88.95187 6.24793 0.32153 -24.0922 11.57397 -4.02553 41.0476 -111.36008 17.28818 -2.15348 34.55214 -1.54877 -12.8342 -20.83917 -7.70962 -2.83636 -3.65224 37.79034 9.14332 9.2407 -27.06506 -8.47488 3.68606 4.13235
0.00077 0.0001 -0.00024 -180.85725 -33.31759 -3.286 45.58513 2.72025 -5.70169 -5.91529 -2.12506 -0.33151 -21.32295 -10.9569 3.75937 37.00249 88.9528 6.31025 0.31171 -24.04866 11.63237 -4.07202 40.90381 -111.59031 17.43281 -2.62374 34.3261 -1.49651 -12.6513 -20.78098 -7.73075 -2.8575 -3.66558 37.55137 9.24208 9.66669 -27.01024 -8.44449 3.65006 4.11174
0.00143 0.00018 -0.00042 -180.77724 -33.08083 -3.26435 45.19594 2.71043 -5.78191 -6.00872 -2.17268 -0.40057 -21.1868 -11.06586 3.87321 37.13845 88.95526 6.37296 0.30189 -24.00324 11.69271 -4.12305 40.75867 -111.78853 17.56814 -3.0805 34.10584 -1.44553 -12.47289 -20.72414 -7.75163 -2.87816 -3.67867 37.31808 9.33935 10.08736 -26.95629 -8.4146 3.61451 4.09138
0.00207 0.00025 -0.0006 -180.69541 -32.83629 -3.24301 44.80299 2.6999 -5.86182 -6.09848 -2.21905 -0.4708 -21.05048 -11.17231 3.98171 37.27156 88.9547 6.43478 0.29211 -23.96177 11.74908 -4.16496 40.61646 -112.04982 17.72172 -3.56357 33.87421 -1.39205 -12.28579 -20.66465 -7.77297 -2.89975 -3.69224 37.07365 9.43952 10.51819 -26.90069 -8.38375 3.5781 4.07052
0.00272 0.00033 -0.00078 -180.61527 -32.59879 -3.22135 44.4132 2.69003 -5.94203 -6.19214 -2.26648 -0.53998 -20.91417 -11.28117 4.09527 37.40724 88.95683 6.49748 0.28226 -23.91645 11.8091 -4.21514 40.47145 -112.25497 17.85907 -4.02302 33.65304 -1.34085 -12.10644 -20.60758 -7.79391 -2.92051 -3.70538 36.83942 9.53702 10.93983 -26.84655 -8.35378 3.54248 4.05012
0.00339 0.00041 -0.00096 -180.53709 -32.37037 -3.19945 44.0283 2.68095 -6.02259 -6.28862 -2.31563 -0.60778 -20.77839 -11.39272 4.21463 37.54643 88.96265 6.56106 0.27242 -23.86714 11.87369 -4.27615 40.32325 -112.3828 17.97404 -4.45099 33.44479 -1.29252 -11.93759 -20.55355 -7.8143 -2.94016 -3.71793 36.61797 9.63128 11.34965 -26.7944 -8.32487 3.50782 4.03029
0.00397 0.00048 -0.00114 -180.44731 -32.09113 -3.17937 43.61835 2.66726 -6.10107 -6.36301 -2.35618 -0.68322 -20.64111 -11.48799 4.29944 37.66655 88.94848 6.61899 0.2628 -23.84293 11.91232 -4.27703 40.1941 -112.92926 18.2101 -5.05224 33.1626 -1.22794 -11.71141 -20.48229 -7.83765 -2.96588 -3.73369 36.32389 9.74422 11.82572 -26.73143 -8.28983 3.46764 4.00722
0.00475 0.00057 -0.00133 -180.38223 -31.91822 -3.15517 43.25932 2.66334 -6.18398 -6.4877 -2.41399 -0.74276 -20.50601 -11.61807 4.45784 37.82615 88.97563 6.6892 0.25253 -23.76446 12.00546 -4.40331 40.02437 -112.60975 18.1957 -5.29303 33.03609 -1.19748 -11.60421 -20.44721 -7.85488 -2.97902 -3.74279 36.18243 9.81774 12.16311 -26.69087 -8.26773 3.43909 3.99095
